<?xml version="1.0" encoding="UTF-8" standalone="no" ?>
<!DOCTYPE svg PUBLIC "-//W3C//DTD SVG 1.1//EN" "http://www.w3.org/Graphics/SVG/1.1/DTD/svg11.dtd">
<svg xmlns="http://www.w3.org/2000/svg" xmlns:xlink="http://www.w3.org/1999/xlink" version="1.1" width="714.86768" height="272" viewBox="0 0 714.86768 272" xml:space="preserve">
<desc>Created with Fabric.js 4.6.0</desc>
<defs>
</defs>
<g transform="matrix(0.02 0 0 0.02 2.63 1)" id="ZoYPnLmFsKMWfETjcKcbJ"  >
<g style="" vector-effect="non-scaling-stroke"   >
		<g transform="matrix(1.33 0 0 1.33 -137.23 6.26)" id="bzkCODcugfih5KWqMEtzA"  >
<path style="stroke: none; stroke-width: 1; stroke-dasharray: none; stroke-linecap: butt; stroke-dashoffset: 0; stroke-linejoin: miter; stroke-miterlimit: 4; fill: rgb(40,40,94); fill-rule: nonzero; opacity: 1;" vector-effect="non-scaling-stroke"  transform=" translate(-126.87, -226.79)" d="M 126.464844 214.183594 C 126.464844 215.34375 126.464844 216.417969 126.464844 217.585938 C 125.9375 217.691406 125.429688 217.761719 124.941406 217.894531 C 121.59375 218.808594 119.273438 220.859375 118.324219 224.226562 C 117.398438 227.519531 118.132812 230.472656 120.550781 232.960938 C 123.109375 235.589844 126.261719 236.347656 129.648438 235.324219 C 132.917969 234.339844 135.089844 232.03125 135.820312 228.585938 C 135.960938 227.914062 136.191406 227.613281 136.910156 227.65625 C 137.742188 227.710938 138.578125 227.667969 139.40625 227.667969 C 139.761719 232.742188 134.9375 238.609375 128.675781 239.316406 C 120.679688 240.21875 114.570312 234.257812 114.316406 227.246094 C 114.03125 219.257812 120.929688 213.898438 126.464844 214.183594 Z M 126.464844 214.183594" stroke-linecap="round" />
</g>
		<g transform="matrix(1.33 0 0 1.33 -121.87 21.06)" id="XwCXw1KrjmbAUtoPVgx2B"  >
<path style="stroke: none; stroke-width: 1; stroke-dasharray: none; stroke-linecap: butt; stroke-dashoffset: 0; stroke-linejoin: miter; stroke-miterlimit: 4; fill: rgb(40,40,94); fill-rule: nonzero; opacity: 1;" vector-effect="non-scaling-stroke"  transform=" translate(-138.39, -237.89)" d="M 135.398438 237.578125 C 136.273438 236.660156 137.089844 235.800781 137.867188 234.984375 C 138.964844 236.019531 140.101562 237.058594 141.1875 238.148438 C 141.359375 238.320312 141.414062 238.746094 141.339844 239 C 140.757812 240.949219 138.992188 241.394531 137.613281 239.960938 C 136.84375 239.15625 136.09375 238.328125 135.398438 237.578125 Z M 135.398438 237.578125" stroke-linecap="round" />
</g>
		<g transform="matrix(1.33 0 0 1.33 -107.71 -7.41)" id="03q44YKLK44tydS2BeGZm"  >
<path style="stroke: none; stroke-width: 1; stroke-dasharray: none; stroke-linecap: butt; stroke-dashoffset: 0; stroke-linejoin: miter; stroke-miterlimit: 4; fill: rgb(33,109,181); fill-rule: nonzero; opacity: 1;" vector-effect="non-scaling-stroke"  transform=" translate(-149, -216.54)" d="M 149 224.015625 C 144.878906 224.015625 141.523438 220.660156 141.523438 216.535156 C 141.523438 212.414062 144.878906 209.058594 149 209.058594 C 153.125 209.058594 156.480469 212.414062 156.480469 216.535156 C 156.480469 220.660156 153.125 224.015625 149 224.015625 Z M 149 211.707031 C 146.339844 211.707031 144.171875 213.875 144.171875 216.535156 C 144.171875 219.199219 146.339844 221.363281 149 221.363281 C 151.664062 221.363281 153.828125 219.199219 153.828125 216.535156 C 153.828125 213.875 151.664062 211.707031 149 211.707031 Z M 149 211.707031" stroke-linecap="round" />
</g>
		<g transform="matrix(1.33 0 0 1.33 -136.95 6.26)" id="UvGcsJ64qZb0O7sUIhlhF"  >
<path style="stroke: none; stroke-width: 1; stroke-dasharray: none; stroke-linecap: butt; stroke-dashoffset: 0; stroke-linejoin: miter; stroke-miterlimit: 4; fill: rgb(33,109,181); fill-rule: nonzero; opacity: 1;" vector-effect="non-scaling-stroke"  transform=" translate(-127.07, -226.79)" d="M 127.074219 234.636719 C 122.746094 234.636719 119.226562 231.117188 119.226562 226.789062 C 119.226562 222.460938 122.746094 218.941406 127.074219 218.941406 C 131.402344 218.941406 134.921875 222.460938 134.921875 226.789062 C 134.921875 231.117188 131.402344 234.636719 127.074219 234.636719 Z M 127.074219 221.59375 C 124.207031 221.59375 121.878906 223.921875 121.878906 226.789062 C 121.878906 229.65625 124.207031 231.984375 127.074219 231.984375 C 129.9375 231.984375 132.269531 229.65625 132.269531 226.789062 C 132.269531 223.921875 129.9375 221.59375 127.074219 221.59375 Z M 127.074219 221.59375" stroke-linecap="round" />
</g>
		<g transform="matrix(1.33 0 0 1.33 -134.86 -25.96)" id="zAdcYgXgpl0wyQaB4xRnz"  >
<path style="stroke: none; stroke-width: 1; stroke-dasharray: none; stroke-linecap: butt; stroke-dashoffset: 0; stroke-linejoin: miter; stroke-miterlimit: 4; fill: rgb(33,109,181); fill-rule: nonzero; opacity: 1;" vector-effect="non-scaling-stroke"  transform=" translate(-128.64, -202.63)" d="M 128.632812 208.710938 C 127.898438 208.710938 127.152344 208.574219 126.429688 208.292969 C 123.308594 207.074219 121.757812 203.542969 122.976562 200.421875 C 123.566406 198.910156 124.710938 197.714844 126.199219 197.066406 C 127.683594 196.414062 129.335938 196.378906 130.847656 196.96875 C 132.363281 197.558594 133.554688 198.703125 134.207031 200.191406 C 134.855469 201.679688 134.890625 203.328125 134.300781 204.84375 C 133.363281 207.238281 131.0625 208.710938 128.632812 208.710938 Z M 125.445312 201.386719 C 124.757812 203.144531 125.632812 205.136719 127.390625 205.824219 C 129.152344 206.511719 131.144531 205.636719 131.832031 203.878906 C 132.164062 203.027344 132.144531 202.09375 131.777344 201.253906 C 131.410156 200.417969 130.738281 199.773438 129.886719 199.4375 C 129.03125 199.105469 128.101562 199.125 127.261719 199.492188 C 126.425781 199.859375 125.78125 200.53125 125.445312 201.386719 Z M 125.445312 201.386719" stroke-linecap="round" />
</g>
		<g transform="matrix(1.33 0 0 1.33 -155.71 -15.68)" id="NiRkXuIz1CDwD0UwmdcUL"  >
<path style="stroke: none; stroke-width: 1; stroke-dasharray: none; stroke-linecap: butt; stroke-dashoffset: 0; stroke-linejoin: miter; stroke-miterlimit: 4; fill: rgb(33,109,181); fill-rule: nonzero; opacity: 1;" vector-effect="non-scaling-stroke"  transform=" translate(-113, -210.34)" d="M 113 215.070312 C 110.6875 215.070312 108.660156 213.367188 108.320312 211.015625 C 107.949219 208.433594 109.746094 206.03125 112.324219 205.65625 C 114.90625 205.285156 117.3125 207.082031 117.683594 209.664062 C 118.054688 212.246094 116.257812 214.648438 113.675781 215.019531 C 113.449219 215.054688 113.222656 215.070312 113 215.070312 Z M 110.941406 210.636719 C 111.023438 211.1875 111.3125 211.671875 111.757812 212.003906 C 112.199219 212.339844 112.75 212.476562 113.296875 212.398438 C 114.433594 212.234375 115.222656 211.179688 115.058594 210.042969 C 114.894531 208.90625 113.839844 208.117188 112.703125 208.28125 C 111.570312 208.445312 110.78125 209.5 110.941406 210.636719 Z M 110.941406 210.636719" stroke-linecap="round" />
</g>
		<g transform="matrix(1.33 0 0 1.33 -145.85 -21.7)" id="9RAsdGf9LMnTX6ANFpSk6"  >
<path style="stroke: none; stroke-width: 1; stroke-dasharray: none; stroke-linecap: butt; stroke-dashoffset: 0; stroke-linejoin: miter; stroke-miterlimit: 4; fill: rgb(33,109,181); fill-rule: nonzero; opacity: 1;" vector-effect="non-scaling-stroke"  transform=" translate(-120.4, -205.83)" d="M 115.179688 207.316406 L 124.289062 202.042969 L 125.617188 204.335938 L 116.507812 209.609375 Z M 115.179688 207.316406" stroke-linecap="round" />
</g>
		<g transform="matrix(1.33 0 0 1.33 -134.68 -10.9)" id="eR2QN2YSoVeZvyEeHQr_Z"  >
<path style="stroke: none; stroke-width: 1; stroke-dasharray: none; stroke-linecap: butt; stroke-dashoffset: 0; stroke-linejoin: miter; stroke-miterlimit: 4; fill: rgb(33,109,181); fill-rule: nonzero; opacity: 1;" vector-effect="non-scaling-stroke"  transform=" translate(-128.78, -213.92)" d="M 127.410156 220.015625 L 127.496094 207.808594 L 130.144531 207.828125 L 130.0625 220.035156 Z M 127.410156 220.015625" stroke-linecap="round" />
</g>
		<g transform="matrix(1.33 0 0 1.33 -121.19 0.79)" id="TtNe8Z-o9XsEDzJ9qH973"  >
<path style="stroke: none; stroke-width: 1; stroke-dasharray: none; stroke-linecap: butt; stroke-dashoffset: 0; stroke-linejoin: miter; stroke-miterlimit: 4; fill: rgb(33,109,181); fill-rule: nonzero; opacity: 1;" vector-effect="non-scaling-stroke"  transform=" translate(-138.89, -222.69)" d="M 133.046875 224.421875 L 143.453125 218.636719 L 144.742188 220.953125 L 134.335938 226.738281 Z M 133.046875 224.421875" stroke-linecap="round" />
</g>
		<g transform="matrix(1.33 0 0 1.33 -136.95 11.77)" id="ev-cGft_pGyyN3YONtNbt"  >
<path style="stroke: none; stroke-width: 1; stroke-dasharray: none; stroke-linecap: butt; stroke-dashoffset: 0; stroke-linejoin: miter; stroke-miterlimit: 4; fill: rgb(33,109,181); fill-rule: nonzero; opacity: 1;" vector-effect="non-scaling-stroke"  transform=" translate(-127.07, -230.93)" d="M 130.824219 231.820312 C 130.824219 232.207031 130.816406 232.597656 130.824219 232.984375 C 130.828125 233.101562 130.789062 233.15625 130.683594 233.207031 C 129.960938 233.542969 129.191406 233.699219 128.40625 233.78125 C 126.722656 233.957031 125.082031 233.71875 123.472656 233.226562 C 123.34375 233.1875 123.304688 233.132812 123.304688 233 C 123.3125 232.308594 123.308594 231.617188 123.3125 230.921875 C 123.316406 229.382812 124.371094 228.171875 125.90625 228.054688 C 126.734375 227.988281 127.574219 228.003906 128.398438 228.074219 C 129.597656 228.175781 130.625 229.203125 130.777344 230.402344 C 130.835938 230.871094 130.820312 231.347656 130.839844 231.820312 C 130.835938 231.820312 130.828125 231.820312 130.824219 231.820312 Z M 130.824219 231.820312" stroke-linecap="round" />
</g>
		<g transform="matrix(1.33 0 0 1.33 -136.95 4.77)" id="YTtUWripPxUC98q54Grmp"  >
<path style="stroke: none; stroke-width: 1; stroke-dasharray: none; stroke-linecap: butt; stroke-dashoffset: 0; stroke-linejoin: miter; stroke-miterlimit: 4; fill: rgb(33,109,181); fill-rule: nonzero; opacity: 1;" vector-effect="non-scaling-stroke"  transform=" translate(-127.07, -225.68)" d="M 124.871094 225.675781 C 124.875 224.449219 125.863281 223.46875 127.082031 223.472656 C 128.289062 223.476562 129.28125 224.476562 129.277344 225.679688 C 129.273438 226.910156 128.28125 227.882812 127.039062 227.878906 C 125.84375 227.875 124.867188 226.882812 124.871094 225.675781 Z M 124.871094 225.675781" stroke-linecap="round" />
</g>
		<g transform="matrix(1.33 0 0 1.33 -107.67 -2.36)" id="SJb5QD4AihMQMNrv832hN"  >
<path style="stroke: none; stroke-width: 1; stroke-dasharray: none; stroke-linecap: butt; stroke-dashoffset: 0; stroke-linejoin: miter; stroke-miterlimit: 4; fill: rgb(33,109,181); fill-rule: nonzero; opacity: 1;" vector-effect="non-scaling-stroke"  transform=" translate(-149.04, -220.33)" d="M 152.496094 221.152344 C 152.496094 221.511719 152.492188 221.867188 152.5 222.226562 C 152.5 222.332031 152.464844 222.386719 152.371094 222.429688 C 151.703125 222.742188 150.992188 222.886719 150.265625 222.960938 C 148.710938 223.125 147.199219 222.90625 145.710938 222.453125 C 145.59375 222.414062 145.554688 222.363281 145.558594 222.242188 C 145.5625 221.601562 145.558594 220.964844 145.5625 220.324219 C 145.566406 218.898438 146.542969 217.785156 147.957031 217.675781 C 148.722656 217.613281 149.496094 217.628906 150.257812 217.691406 C 151.367188 217.785156 152.3125 218.734375 152.453125 219.84375 C 152.511719 220.273438 152.496094 220.714844 152.515625 221.152344 C 152.507812 221.152344 152.503906 221.152344 152.496094 221.152344 Z M 152.496094 221.152344" stroke-linecap="round" />
</g>
		<g transform="matrix(1.33 0 0 1.33 -107.67 -8.82)" id="jIJUiUfqGvP_xsUmd5mU3"  >
<path style="stroke: none; stroke-width: 1; stroke-dasharray: none; stroke-linecap: butt; stroke-dashoffset: 0; stroke-linejoin: miter; stroke-miterlimit: 4; fill: rgb(33,109,181); fill-rule: nonzero; opacity: 1;" vector-effect="non-scaling-stroke"  transform=" translate(-149.04, -215.48)" d="M 147.003906 215.476562 C 147.003906 214.347656 147.914062 213.441406 149.042969 213.445312 C 150.160156 213.449219 151.074219 214.371094 151.070312 215.484375 C 151.066406 216.617188 150.148438 217.519531 149.003906 217.515625 C 147.898438 217.507812 147 216.59375 147.003906 215.476562 Z M 147.003906 215.476562" stroke-linecap="round" />
</g>
		<g transform="matrix(1.33 0 0 1.33 -134.73 -22.37)" id="gUzpqR-JbzFcvtA1hKQYt"  >
<path style="stroke: none; stroke-width: 1; stroke-dasharray: none; stroke-linecap: butt; stroke-dashoffset: 0; stroke-linejoin: miter; stroke-miterlimit: 4; fill: rgb(33,109,181); fill-rule: nonzero; opacity: 1;" vector-effect="non-scaling-stroke"  transform=" translate(-128.74, -205.32)" d="M 131.398438 205.863281 C 131.40625 206.136719 131.414062 206.414062 131.429688 206.6875 C 131.433594 206.769531 131.40625 206.8125 131.335938 206.847656 C 130.832031 207.105469 130.289062 207.234375 129.734375 207.3125 C 128.546875 207.476562 127.378906 207.351562 126.226562 207.042969 C 126.136719 207.015625 126.105469 206.976562 126.105469 206.882812 C 126.089844 206.394531 126.070312 205.902344 126.054688 205.414062 C 126.019531 204.320312 126.738281 203.4375 127.824219 203.316406 C 128.40625 203.25 129 203.238281 129.589844 203.269531 C 130.441406 203.3125 131.191406 204.015625 131.332031 204.859375 C 131.382812 205.191406 131.386719 205.527344 131.410156 205.863281 C 131.40625 205.863281 131.402344 205.863281 131.398438 205.863281 Z M 131.398438 205.863281" stroke-linecap="round" />
</g>
		<g transform="matrix(1.33 0 0 1.33 -134.93 -27.33)" id="ZYXtP7syyc3HEQJurKVA9"  >
<path style="stroke: none; stroke-width: 1; stroke-dasharray: none; stroke-linecap: butt; stroke-dashoffset: 0; stroke-linejoin: miter; stroke-miterlimit: 4; fill: rgb(33,109,181); fill-rule: nonzero; opacity: 1;" vector-effect="non-scaling-stroke"  transform=" translate(-128.59, -201.6)" d="M 127.03125 201.65625 C 127.003906 200.789062 127.675781 200.070312 128.542969 200.042969 C 129.398438 200.015625 130.125 200.699219 130.152344 201.554688 C 130.179688 202.421875 129.5 203.136719 128.621094 203.164062 C 127.773438 203.191406 127.058594 202.515625 127.03125 201.65625 Z M 127.03125 201.65625" stroke-linecap="round" />
</g>
		<g transform="matrix(1.33 0 0 1.33 -155.62 -13.87)" id="JRn5okCFnNPPDluwTnsYG"  >
<path style="stroke: none; stroke-width: 1; stroke-dasharray: none; stroke-linecap: butt; stroke-dashoffset: 0; stroke-linejoin: miter; stroke-miterlimit: 4; fill: rgb(33,109,181); fill-rule: nonzero; opacity: 1;" vector-effect="non-scaling-stroke"  transform=" translate(-113.07, -211.69)" d="M 114.5 211.984375 C 114.503906 212.132812 114.507812 212.277344 114.515625 212.425781 C 114.519531 212.46875 114.503906 212.492188 114.464844 212.511719 C 114.195312 212.648438 113.90625 212.71875 113.609375 212.761719 C 112.96875 212.851562 112.34375 212.78125 111.726562 212.617188 C 111.675781 212.601562 111.660156 212.582031 111.660156 212.53125 C 111.652344 212.269531 111.644531 212.007812 111.632812 211.742188 C 111.617188 211.15625 112 210.683594 112.582031 210.617188 C 112.894531 210.582031 113.214844 210.578125 113.527344 210.59375 C 113.988281 210.617188 114.390625 210.992188 114.464844 211.445312 C 114.492188 211.625 114.492188 211.804688 114.507812 211.984375 C 114.503906 211.984375 114.5 211.984375 114.5 211.984375 Z M 114.5 211.984375" stroke-linecap="round" />
</g>
		<g transform="matrix(1.33 0 0 1.33 -155.72 -16.53)" id="GmWdq5Q0VEmccxHqz0H5r"  >
<path style="stroke: none; stroke-width: 1; stroke-dasharray: none; stroke-linecap: butt; stroke-dashoffset: 0; stroke-linejoin: miter; stroke-miterlimit: 4; fill: rgb(33,109,181); fill-rule: nonzero; opacity: 1;" vector-effect="non-scaling-stroke"  transform=" translate(-112.99, -209.7)" d="M 112.15625 209.730469 C 112.140625 209.265625 112.503906 208.878906 112.96875 208.863281 C 113.425781 208.851562 113.816406 209.214844 113.832031 209.671875 C 113.84375 210.140625 113.480469 210.523438 113.011719 210.539062 C 112.554688 210.550781 112.171875 210.1875 112.15625 209.730469 Z M 112.15625 209.730469" stroke-linecap="round" />
</g>
		<g transform="matrix(1.33 0 0 1.33 -72.26 -3.66)" id="tN9VLINpgeMVmlVoIBszJ"  >
<path style="stroke: none; stroke-width: 1; stroke-dasharray: none; stroke-linecap: butt; stroke-dashoffset: 0; stroke-linejoin: miter; stroke-miterlimit: 4; fill: rgb(33,109,181); fill-rule: nonzero; opacity: 1;" vector-effect="non-scaling-stroke"  transform=" translate(-15.84, 16.32)" d="M 9.984375 -6.625 L 9.984375 -25.96875 L 12.144531 -25.96875 C 17.710938 -25.96875 21.457031 -21.742188 21.457031 -16.320312 C 21.457031 -10.894531 17.664062 -6.625 12.144531 -6.625 Z M 2.878906 -32.640625 L 2.878906 0 L 12.574219 0 C 21.839844 0 28.800781 -7.105469 28.800781 -16.320312 C 28.800781 -25.535156 21.792969 -32.640625 12.574219 -32.640625 Z M 2.878906 -32.640625" stroke-linecap="round" />
</g>
		<g transform="matrix(1.33 0 0 1.33 -43.78 -3.66)" id="CbPGCUVBDtWbs6C6F8xns"  >
<path style="stroke: none; stroke-width: 1; stroke-dasharray: none; stroke-linecap: butt; stroke-dashoffset: 0; stroke-linejoin: miter; stroke-miterlimit: 4; fill: rgb(33,109,181); fill-rule: nonzero; opacity: 1;" vector-effect="non-scaling-stroke"  transform=" translate(-6.72, 16.32)" d="M 2.496094 -28.414062 C 2.496094 -26.113281 4.367188 -24.191406 6.71875 -24.191406 C 9.023438 -24.191406 10.945312 -26.113281 10.945312 -28.414062 C 10.945312 -30.769531 9.023438 -32.640625 6.71875 -32.640625 C 4.367188 -32.640625 2.496094 -30.769531 2.496094 -28.414062 Z M 10.320312 0 L 10.320312 -21.167969 L 3.121094 -21.167969 L 3.121094 0 Z M 10.320312 0" stroke-linecap="round" />
</g>
		<g transform="matrix(1.33 0 0 1.33 -15.94 11.67)" id="BAYB77DPD8DX6ZtVwS3-o"  >
<path style="stroke: none; stroke-width: 1; stroke-dasharray: none; stroke-linecap: butt; stroke-dashoffset: 0; stroke-linejoin: miter; stroke-miterlimit: 4; fill: rgb(33,109,181); fill-rule: nonzero; opacity: 1;" vector-effect="non-scaling-stroke"  transform=" translate(-14.16, 4.82)" d="M 14.398438 -5.28125 C 11.519531 -5.28125 9.359375 -7.777344 9.359375 -10.609375 C 9.359375 -13.390625 11.519531 -15.886719 14.398438 -15.886719 C 17.28125 -15.886719 19.441406 -13.390625 19.441406 -10.609375 C 19.441406 -7.777344 17.28125 -5.28125 14.398438 -5.28125 Z M 19.441406 -18.574219 C 17.375 -20.976562 14.878906 -21.648438 12.191406 -21.648438 C 6.191406 -21.648438 1.679688 -16.464844 1.679688 -10.609375 C 1.679688 -4.753906 6.191406 0.480469 12.191406 0.480469 C 14.878906 0.480469 18 -0.382812 19.441406 -2.59375 L 19.441406 0.769531 C 19.441406 3.792969 17.183594 6.671875 14.015625 6.671875 C 11.710938 6.671875 9.742188 5.183594 9.214844 2.6875 L 2.015625 2.6875 C 2.351562 9.121094 8.640625 12 14.398438 12 C 21.121094 12 26.640625 6.910156 26.640625 -0.046875 L 26.640625 -21.167969 L 19.441406 -21.167969 Z M 19.441406 -18.574219" stroke-linecap="round" />
</g>
		<g transform="matrix(1.33 0 0 1.33 13.5 -3.66)" id="6ZSrTxzxmeTBh4BClgE5y"  >
<path style="stroke: none; stroke-width: 1; stroke-dasharray: none; stroke-linecap: butt; stroke-dashoffset: 0; stroke-linejoin: miter; stroke-miterlimit: 4; fill: rgb(33,109,181); fill-rule: nonzero; opacity: 1;" vector-effect="non-scaling-stroke"  transform=" translate(-6.72, 16.32)" d="M 2.496094 -28.414062 C 2.496094 -26.113281 4.367188 -24.191406 6.71875 -24.191406 C 9.023438 -24.191406 10.945312 -26.113281 10.945312 -28.414062 C 10.945312 -30.769531 9.023438 -32.640625 6.71875 -32.640625 C 4.367188 -32.640625 2.496094 -30.769531 2.496094 -28.414062 Z M 10.320312 0 L 10.320312 -21.167969 L 3.121094 -21.167969 L 3.121094 0 Z M 10.320312 0" stroke-linecap="round" />
</g>
		<g transform="matrix(1.33 0 0 1.33 42.2 -5.9)" id="ELTwn3xcgu3hZ1iz7n-Cs"  >
<path style="stroke: none; stroke-width: 1; stroke-dasharray: none; stroke-linecap: butt; stroke-dashoffset: 0; stroke-linejoin: miter; stroke-miterlimit: 4; fill: rgb(33,109,181); fill-rule: nonzero; opacity: 1;" vector-effect="non-scaling-stroke"  transform=" translate(-14.81, 18)" d="M 10.078125 -9.359375 L 17.519531 0 L 26.734375 0 L 16.65625 -11.089844 L 25.777344 -21.167969 L 16.847656 -21.167969 L 10.078125 -12.769531 L 10.078125 -36 L 2.878906 -36 L 2.878906 0 L 10.078125 0 Z M 10.078125 -9.359375" stroke-linecap="round" />
</g>
		<g transform="matrix(1.33 0 0 1.33 77.56 -3.66)" id="N6B4plf_EW1ymzXqgZyQc"  >
<path style="stroke: none; stroke-width: 1; stroke-dasharray: none; stroke-linecap: butt; stroke-dashoffset: 0; stroke-linejoin: miter; stroke-miterlimit: 4; fill: rgb(40,40,94); fill-rule: nonzero; opacity: 1;" vector-effect="non-scaling-stroke"  transform=" translate(-16.03, 16.32)" d="M 12.433594 0 L 19.632812 0 L 19.632812 -15.601562 L 31.679688 -32.640625 L 23.089844 -32.640625 L 16.03125 -21.359375 L 8.976562 -32.640625 L 0.382812 -32.640625 L 12.433594 -15.601562 Z M 12.433594 0" stroke-linecap="round" />
</g>
		<g transform="matrix(1.33 0 0 1.33 117.81 3.99)" id="2J3Pm1fHe8nRvks1ClYO6"  >
<path style="stroke: none; stroke-width: 1; stroke-dasharray: none; stroke-linecap: butt; stroke-dashoffset: 0; stroke-linejoin: miter; stroke-miterlimit: 4; fill: rgb(40,40,94); fill-rule: nonzero; opacity: 1;" vector-effect="non-scaling-stroke"  transform=" translate(-14.16, 10.58)" d="M 19.441406 -10.558594 C 19.441406 -7.777344 17.28125 -5.28125 14.398438 -5.28125 C 11.519531 -5.28125 9.359375 -7.777344 9.359375 -10.558594 C 9.359375 -13.34375 11.519531 -15.839844 14.398438 -15.839844 C 17.28125 -15.839844 19.441406 -13.34375 19.441406 -10.558594 Z M 26.640625 -21.121094 L 19.441406 -21.121094 L 19.441406 -18.574219 C 17.566406 -20.878906 14.878906 -21.648438 12.191406 -21.648438 C 6.191406 -21.648438 1.679688 -16.414062 1.679688 -10.558594 C 1.679688 -4.703125 6.191406 0.480469 12.191406 0.480469 C 14.878906 0.480469 18 -0.382812 19.441406 -2.542969 L 19.441406 0 L 26.640625 0 Z M 26.640625 -21.121094" stroke-linecap="round" />
</g>
		<g transform="matrix(1.33 0 0 1.33 152.08 3.67)" id="s_h1-kek4eWT36XcBzGsk"  >
<path style="stroke: none; stroke-width: 1; stroke-dasharray: none; stroke-linecap: butt; stroke-dashoffset: 0; stroke-linejoin: miter; stroke-miterlimit: 4; fill: rgb(40,40,94); fill-rule: nonzero; opacity: 1;" vector-effect="non-scaling-stroke"  transform=" translate(-10.34, 10.82)" d="M 14.832031 -15.839844 C 15.9375 -15.839844 16.992188 -15.503906 17.710938 -14.640625 L 17.808594 -14.640625 L 17.808594 -21.167969 C 17.230469 -21.457031 16.273438 -21.648438 15.648438 -21.648438 C 13.007812 -21.648438 11.183594 -20.160156 10.078125 -18.574219 L 10.078125 -21.167969 L 2.878906 -21.167969 L 2.878906 0 L 10.078125 0 L 10.078125 -10.558594 C 10.078125 -13.105469 12.144531 -15.839844 14.832031 -15.839844 Z M 14.832031 -15.839844" stroke-linecap="round" />
</g>
		<g transform="matrix(1.33 0 0 1.33 -137.23 6.26)" id="U-mVC7GlH5oww1u3odVan"  >
<path style="stroke: none; stroke-width: 1; stroke-dasharray: none; stroke-linecap: butt; stroke-dashoffset: 0; stroke-linejoin: miter; stroke-miterlimit: 4; fill: rgb(40,40,94); fill-rule: nonzero; opacity: 1;" vector-effect="non-scaling-stroke"  transform=" translate(-126.87, -226.79)" d="M 126.464844 214.183594 C 126.464844 215.34375 126.464844 216.417969 126.464844 217.585938 C 125.9375 217.691406 125.429688 217.761719 124.941406 217.894531 C 121.59375 218.808594 119.273438 220.859375 118.324219 224.226562 C 117.398438 227.519531 118.132812 230.472656 120.550781 232.960938 C 123.109375 235.589844 126.261719 236.347656 129.648438 235.324219 C 132.917969 234.339844 135.089844 232.03125 135.820312 228.585938 C 135.960938 227.914062 136.191406 227.613281 136.910156 227.65625 C 137.742188 227.710938 138.578125 227.667969 139.40625 227.667969 C 139.761719 232.742188 134.9375 238.609375 128.675781 239.316406 C 120.679688 240.21875 114.570312 234.257812 114.316406 227.246094 C 114.03125 219.257812 120.929688 213.898438 126.464844 214.183594 Z M 126.464844 214.183594" stroke-linecap="round" />
</g>
		<g transform="matrix(1.33 0 0 1.33 -121.87 21.06)" id="kFUAjzU7LLTW63PyaTKwV"  >
<path style="stroke: none; stroke-width: 1; stroke-dasharray: none; stroke-linecap: butt; stroke-dashoffset: 0; stroke-linejoin: miter; stroke-miterlimit: 4; fill: rgb(40,40,94); fill-rule: nonzero; opacity: 1;" vector-effect="non-scaling-stroke"  transform=" translate(-138.39, -237.89)" d="M 135.398438 237.578125 C 136.273438 236.660156 137.089844 235.800781 137.867188 234.984375 C 138.964844 236.019531 140.101562 237.058594 141.1875 238.148438 C 141.359375 238.320312 141.414062 238.746094 141.339844 239 C 140.757812 240.949219 138.992188 241.394531 137.613281 239.960938 C 136.84375 239.15625 136.09375 238.328125 135.398438 237.578125 Z M 135.398438 237.578125" stroke-linecap="round" />
</g>
		<g transform="matrix(1.33 0 0 1.33 -107.71 -7.41)" id="qH8hm3cHsjOl055wTrto-"  >
<path style="stroke: none; stroke-width: 1; stroke-dasharray: none; stroke-linecap: butt; stroke-dashoffset: 0; stroke-linejoin: miter; stroke-miterlimit: 4; fill: rgb(33,109,181); fill-rule: nonzero; opacity: 1;" vector-effect="non-scaling-stroke"  transform=" translate(-149, -216.54)" d="M 149 224.015625 C 144.878906 224.015625 141.523438 220.660156 141.523438 216.535156 C 141.523438 212.414062 144.878906 209.058594 149 209.058594 C 153.125 209.058594 156.480469 212.414062 156.480469 216.535156 C 156.480469 220.660156 153.125 224.015625 149 224.015625 Z M 149 211.707031 C 146.339844 211.707031 144.171875 213.875 144.171875 216.535156 C 144.171875 219.199219 146.339844 221.363281 149 221.363281 C 151.664062 221.363281 153.828125 219.199219 153.828125 216.535156 C 153.828125 213.875 151.664062 211.707031 149 211.707031 Z M 149 211.707031" stroke-linecap="round" />
</g>
		<g transform="matrix(1.33 0 0 1.33 -136.95 6.26)" id="R7mfsaKSvutSOR_GFN8nv"  >
<path style="stroke: none; stroke-width: 1; stroke-dasharray: none; stroke-linecap: butt; stroke-dashoffset: 0; stroke-linejoin: miter; stroke-miterlimit: 4; fill: rgb(33,109,181); fill-rule: nonzero; opacity: 1;" vector-effect="non-scaling-stroke"  transform=" translate(-127.07, -226.79)" d="M 127.074219 234.636719 C 122.746094 234.636719 119.226562 231.117188 119.226562 226.789062 C 119.226562 222.460938 122.746094 218.941406 127.074219 218.941406 C 131.402344 218.941406 134.921875 222.460938 134.921875 226.789062 C 134.921875 231.117188 131.402344 234.636719 127.074219 234.636719 Z M 127.074219 221.59375 C 124.207031 221.59375 121.878906 223.921875 121.878906 226.789062 C 121.878906 229.65625 124.207031 231.984375 127.074219 231.984375 C 129.9375 231.984375 132.269531 229.65625 132.269531 226.789062 C 132.269531 223.921875 129.9375 221.59375 127.074219 221.59375 Z M 127.074219 221.59375" stroke-linecap="round" />
</g>
		<g transform="matrix(1.33 0 0 1.33 -134.86 -25.96)" id="I_z_RsuoUVK7ds8Z4xog1"  >
<path style="stroke: none; stroke-width: 1; stroke-dasharray: none; stroke-linecap: butt; stroke-dashoffset: 0; stroke-linejoin: miter; stroke-miterlimit: 4; fill: rgb(33,109,181); fill-rule: nonzero; opacity: 1;" vector-effect="non-scaling-stroke"  transform=" translate(-128.64, -202.63)" d="M 128.632812 208.710938 C 127.898438 208.710938 127.152344 208.574219 126.429688 208.292969 C 123.308594 207.074219 121.757812 203.542969 122.976562 200.421875 C 123.566406 198.910156 124.710938 197.714844 126.199219 197.066406 C 127.683594 196.414062 129.335938 196.378906 130.847656 196.96875 C 132.363281 197.558594 133.554688 198.703125 134.207031 200.191406 C 134.855469 201.679688 134.890625 203.328125 134.300781 204.84375 C 133.363281 207.238281 131.0625 208.710938 128.632812 208.710938 Z M 125.445312 201.386719 C 124.757812 203.144531 125.632812 205.136719 127.390625 205.824219 C 129.152344 206.511719 131.144531 205.636719 131.832031 203.878906 C 132.164062 203.027344 132.144531 202.09375 131.777344 201.253906 C 131.410156 200.417969 130.738281 199.773438 129.886719 199.4375 C 129.03125 199.105469 128.101562 199.125 127.261719 199.492188 C 126.425781 199.859375 125.78125 200.53125 125.445312 201.386719 Z M 125.445312 201.386719" stroke-linecap="round" />
</g>
		<g transform="matrix(1.33 0 0 1.33 -155.71 -15.68)" id="bhaaqGXpqbBn9SSTDl4N7"  >
<path style="stroke: none; stroke-width: 1; stroke-dasharray: none; stroke-linecap: butt; stroke-dashoffset: 0; stroke-linejoin: miter; stroke-miterlimit: 4; fill: rgb(33,109,181); fill-rule: nonzero; opacity: 1;" vector-effect="non-scaling-stroke"  transform=" translate(-113, -210.34)" d="M 113 215.070312 C 110.6875 215.070312 108.660156 213.367188 108.320312 211.015625 C 107.949219 208.433594 109.746094 206.03125 112.324219 205.65625 C 114.90625 205.285156 117.3125 207.082031 117.683594 209.664062 C 118.054688 212.246094 116.257812 214.648438 113.675781 215.019531 C 113.449219 215.054688 113.222656 215.070312 113 215.070312 Z M 110.941406 210.636719 C 111.023438 211.1875 111.3125 211.671875 111.757812 212.003906 C 112.199219 212.339844 112.75 212.476562 113.296875 212.398438 C 114.433594 212.234375 115.222656 211.179688 115.058594 210.042969 C 114.894531 208.90625 113.839844 208.117188 112.703125 208.28125 C 111.570312 208.445312 110.78125 209.5 110.941406 210.636719 Z M 110.941406 210.636719" stroke-linecap="round" />
</g>
		<g transform="matrix(1.33 0 0 1.33 -145.85 -21.7)" id="sQwW5gRSVv3AFyKBxvzSh"  >
<path style="stroke: none; stroke-width: 1; stroke-dasharray: none; stroke-linecap: butt; stroke-dashoffset: 0; stroke-linejoin: miter; stroke-miterlimit: 4; fill: rgb(33,109,181); fill-rule: nonzero; opacity: 1;" vector-effect="non-scaling-stroke"  transform=" translate(-120.4, -205.83)" d="M 115.179688 207.316406 L 124.289062 202.042969 L 125.617188 204.335938 L 116.507812 209.609375 Z M 115.179688 207.316406" stroke-linecap="round" />
</g>
		<g transform="matrix(1.33 0 0 1.33 -134.68 -10.9)" id="vIXM3VdOXGzeWJiFeNTVH"  >
<path style="stroke: none; stroke-width: 1; stroke-dasharray: none; stroke-linecap: butt; stroke-dashoffset: 0; stroke-linejoin: miter; stroke-miterlimit: 4; fill: rgb(33,109,181); fill-rule: nonzero; opacity: 1;" vector-effect="non-scaling-stroke"  transform=" translate(-128.78, -213.92)" d="M 127.410156 220.015625 L 127.496094 207.808594 L 130.144531 207.828125 L 130.0625 220.035156 Z M 127.410156 220.015625" stroke-linecap="round" />
</g>
		<g transform="matrix(1.33 0 0 1.33 -121.19 0.79)" id="G-QKVTB5lJOrYuXqmBxgp"  >
<path style="stroke: none; stroke-width: 1; stroke-dasharray: none; stroke-linecap: butt; stroke-dashoffset: 0; stroke-linejoin: miter; stroke-miterlimit: 4; fill: rgb(33,109,181); fill-rule: nonzero; opacity: 1;" vector-effect="non-scaling-stroke"  transform=" translate(-138.89, -222.69)" d="M 133.046875 224.421875 L 143.453125 218.636719 L 144.742188 220.953125 L 134.335938 226.738281 Z M 133.046875 224.421875" stroke-linecap="round" />
</g>
		<g transform="matrix(1.33 0 0 1.33 -136.95 11.77)" id="RP8dSNaGwqOFuA5TdJFmD"  >
<path style="stroke: none; stroke-width: 1; stroke-dasharray: none; stroke-linecap: butt; stroke-dashoffset: 0; stroke-linejoin: miter; stroke-miterlimit: 4; fill: rgb(33,109,181); fill-rule: nonzero; opacity: 1;" vector-effect="non-scaling-stroke"  transform=" translate(-127.07, -230.93)" d="M 130.824219 231.820312 C 130.824219 232.207031 130.816406 232.597656 130.824219 232.984375 C 130.828125 233.101562 130.789062 233.15625 130.683594 233.207031 C 129.960938 233.542969 129.191406 233.699219 128.40625 233.78125 C 126.722656 233.957031 125.082031 233.71875 123.472656 233.226562 C 123.34375 233.1875 123.304688 233.132812 123.304688 233 C 123.3125 232.308594 123.308594 231.617188 123.3125 230.921875 C 123.316406 229.382812 124.371094 228.171875 125.90625 228.054688 C 126.734375 227.988281 127.574219 228.003906 128.398438 228.074219 C 129.597656 228.175781 130.625 229.203125 130.777344 230.402344 C 130.835938 230.871094 130.820312 231.347656 130.839844 231.820312 C 130.835938 231.820312 130.828125 231.820312 130.824219 231.820312 Z M 130.824219 231.820312" stroke-linecap="round" />
</g>
		<g transform="matrix(1.33 0 0 1.33 -136.95 4.77)" id="OnOt2AEUW8agv3sRx1Qkd"  >
<path style="stroke: none; stroke-width: 1; stroke-dasharray: none; stroke-linecap: butt; stroke-dashoffset: 0; stroke-linejoin: miter; stroke-miterlimit: 4; fill: rgb(33,109,181); fill-rule: nonzero; opacity: 1;" vector-effect="non-scaling-stroke"  transform=" translate(-127.07, -225.68)" d="M 124.871094 225.675781 C 124.875 224.449219 125.863281 223.46875 127.082031 223.472656 C 128.289062 223.476562 129.28125 224.476562 129.277344 225.679688 C 129.273438 226.910156 128.28125 227.882812 127.039062 227.878906 C 125.84375 227.875 124.867188 226.882812 124.871094 225.675781 Z M 124.871094 225.675781" stroke-linecap="round" />
</g>
		<g transform="matrix(1.33 0 0 1.33 -107.67 -2.36)" id="u31q76nh86POzk_lLVPnq"  >
<path style="stroke: none; stroke-width: 1; stroke-dasharray: none; stroke-linecap: butt; stroke-dashoffset: 0; stroke-linejoin: miter; stroke-miterlimit: 4; fill: rgb(33,109,181); fill-rule: nonzero; opacity: 1;" vector-effect="non-scaling-stroke"  transform=" translate(-149.04, -220.33)" d="M 152.496094 221.152344 C 152.496094 221.511719 152.492188 221.867188 152.5 222.226562 C 152.5 222.332031 152.464844 222.386719 152.371094 222.429688 C 151.703125 222.742188 150.992188 222.886719 150.265625 222.960938 C 148.710938 223.125 147.199219 222.90625 145.710938 222.453125 C 145.59375 222.414062 145.554688 222.363281 145.558594 222.242188 C 145.5625 221.601562 145.558594 220.964844 145.5625 220.324219 C 145.566406 218.898438 146.542969 217.785156 147.957031 217.675781 C 148.722656 217.613281 149.496094 217.628906 150.257812 217.691406 C 151.367188 217.785156 152.3125 218.734375 152.453125 219.84375 C 152.511719 220.273438 152.496094 220.714844 152.515625 221.152344 C 152.507812 221.152344 152.503906 221.152344 152.496094 221.152344 Z M 152.496094 221.152344" stroke-linecap="round" />
</g>
		<g transform="matrix(1.33 0 0 1.33 -107.67 -8.82)" id="f-Eq_9LixiAybgNuxeUr2"  >
<path style="stroke: none; stroke-width: 1; stroke-dasharray: none; stroke-linecap: butt; stroke-dashoffset: 0; stroke-linejoin: miter; stroke-miterlimit: 4; fill: rgb(33,109,181); fill-rule: nonzero; opacity: 1;" vector-effect="non-scaling-stroke"  transform=" translate(-149.04, -215.48)" d="M 147.003906 215.476562 C 147.003906 214.347656 147.914062 213.441406 149.042969 213.445312 C 150.160156 213.449219 151.074219 214.371094 151.070312 215.484375 C 151.066406 216.617188 150.148438 217.519531 149.003906 217.515625 C 147.898438 217.507812 147 216.59375 147.003906 215.476562 Z M 147.003906 215.476562" stroke-linecap="round" />
</g>
		<g transform="matrix(1.33 0 0 1.33 -134.73 -22.37)" id="Cg6W0Jqu_eeaKc7T0HhmK"  >
<path style="stroke: none; stroke-width: 1; stroke-dasharray: none; stroke-linecap: butt; stroke-dashoffset: 0; stroke-linejoin: miter; stroke-miterlimit: 4; fill: rgb(33,109,181); fill-rule: nonzero; opacity: 1;" vector-effect="non-scaling-stroke"  transform=" translate(-128.74, -205.32)" d="M 131.398438 205.863281 C 131.40625 206.136719 131.414062 206.414062 131.429688 206.6875 C 131.433594 206.769531 131.40625 206.8125 131.335938 206.847656 C 130.832031 207.105469 130.289062 207.234375 129.734375 207.3125 C 128.546875 207.476562 127.378906 207.351562 126.226562 207.042969 C 126.136719 207.015625 126.105469 206.976562 126.105469 206.882812 C 126.089844 206.394531 126.070312 205.902344 126.054688 205.414062 C 126.019531 204.320312 126.738281 203.4375 127.824219 203.316406 C 128.40625 203.25 129 203.238281 129.589844 203.269531 C 130.441406 203.3125 131.191406 204.015625 131.332031 204.859375 C 131.382812 205.191406 131.386719 205.527344 131.410156 205.863281 C 131.40625 205.863281 131.402344 205.863281 131.398438 205.863281 Z M 131.398438 205.863281" stroke-linecap="round" />
</g>
		<g transform="matrix(1.33 0 0 1.33 -134.93 -27.33)" id="_8c04uilstoD91f0TXgVy"  >
<path style="stroke: none; stroke-width: 1; stroke-dasharray: none; stroke-linecap: butt; stroke-dashoffset: 0; stroke-linejoin: miter; stroke-miterlimit: 4; fill: rgb(33,109,181); fill-rule: nonzero; opacity: 1;" vector-effect="non-scaling-stroke"  transform=" translate(-128.59, -201.6)" d="M 127.03125 201.65625 C 127.003906 200.789062 127.675781 200.070312 128.542969 200.042969 C 129.398438 200.015625 130.125 200.699219 130.152344 201.554688 C 130.179688 202.421875 129.5 203.136719 128.621094 203.164062 C 127.773438 203.191406 127.058594 202.515625 127.03125 201.65625 Z M 127.03125 201.65625" stroke-linecap="round" />
</g>
		<g transform="matrix(1.33 0 0 1.33 -155.62 -13.87)" id="6XRmC6KUjjHFlR7Ysc9wN"  >
<path style="stroke: none; stroke-width: 1; stroke-dasharray: none; stroke-linecap: butt; stroke-dashoffset: 0; stroke-linejoin: miter; stroke-miterlimit: 4; fill: rgb(33,109,181); fill-rule: nonzero; opacity: 1;" vector-effect="non-scaling-stroke"  transform=" translate(-113.07, -211.69)" d="M 114.5 211.984375 C 114.503906 212.132812 114.507812 212.277344 114.515625 212.425781 C 114.519531 212.46875 114.503906 212.492188 114.464844 212.511719 C 114.195312 212.648438 113.90625 212.71875 113.609375 212.761719 C 112.96875 212.851562 112.34375 212.78125 111.726562 212.617188 C 111.675781 212.601562 111.660156 212.582031 111.660156 212.53125 C 111.652344 212.269531 111.644531 212.007812 111.632812 211.742188 C 111.617188 211.15625 112 210.683594 112.582031 210.617188 C 112.894531 210.582031 113.214844 210.578125 113.527344 210.59375 C 113.988281 210.617188 114.390625 210.992188 114.464844 211.445312 C 114.492188 211.625 114.492188 211.804688 114.507812 211.984375 C 114.503906 211.984375 114.5 211.984375 114.5 211.984375 Z M 114.5 211.984375" stroke-linecap="round" />
</g>
		<g transform="matrix(1.33 0 0 1.33 -155.72 -16.53)" id="sDyY57uEeC-gXuet2yzfv"  >
<path style="stroke: none; stroke-width: 1; stroke-dasharray: none; stroke-linecap: butt; stroke-dashoffset: 0; stroke-linejoin: miter; stroke-miterlimit: 4; fill: rgb(33,109,181); fill-rule: nonzero; opacity: 1;" vector-effect="non-scaling-stroke"  transform=" translate(-112.99, -209.7)" d="M 112.15625 209.730469 C 112.140625 209.265625 112.503906 208.878906 112.96875 208.863281 C 113.425781 208.851562 113.816406 209.214844 113.832031 209.671875 C 113.84375 210.140625 113.480469 210.523438 113.011719 210.539062 C 112.554688 210.550781 112.171875 210.1875 112.15625 209.730469 Z M 112.15625 209.730469" stroke-linecap="round" />
</g>
		<g transform="matrix(1.33 0 0 1.33 -72.26 -3.66)" id="oBiTIHR3yWQix7wTv3-tu"  >
<path style="stroke: none; stroke-width: 1; stroke-dasharray: none; stroke-linecap: butt; stroke-dashoffset: 0; stroke-linejoin: miter; stroke-miterlimit: 4; fill: rgb(33,109,181); fill-rule: nonzero; opacity: 1;" vector-effect="non-scaling-stroke"  transform=" translate(-15.84, 16.32)" d="M 9.984375 -6.625 L 9.984375 -25.96875 L 12.144531 -25.96875 C 17.710938 -25.96875 21.457031 -21.742188 21.457031 -16.320312 C 21.457031 -10.894531 17.664062 -6.625 12.144531 -6.625 Z M 2.878906 -32.640625 L 2.878906 0 L 12.574219 0 C 21.839844 0 28.800781 -7.105469 28.800781 -16.320312 C 28.800781 -25.535156 21.792969 -32.640625 12.574219 -32.640625 Z M 2.878906 -32.640625" stroke-linecap="round" />
</g>
		<g transform="matrix(1.33 0 0 1.33 -43.78 -3.66)" id="p3DQEvz6p9_Nvs-S4LHT5"  >
<path style="stroke: none; stroke-width: 1; stroke-dasharray: none; stroke-linecap: butt; stroke-dashoffset: 0; stroke-linejoin: miter; stroke-miterlimit: 4; fill: rgb(33,109,181); fill-rule: nonzero; opacity: 1;" vector-effect="non-scaling-stroke"  transform=" translate(-6.72, 16.32)" d="M 2.496094 -28.414062 C 2.496094 -26.113281 4.367188 -24.191406 6.71875 -24.191406 C 9.023438 -24.191406 10.945312 -26.113281 10.945312 -28.414062 C 10.945312 -30.769531 9.023438 -32.640625 6.71875 -32.640625 C 4.367188 -32.640625 2.496094 -30.769531 2.496094 -28.414062 Z M 10.320312 0 L 10.320312 -21.167969 L 3.121094 -21.167969 L 3.121094 0 Z M 10.320312 0" stroke-linecap="round" />
</g>
		<g transform="matrix(1.33 0 0 1.33 -15.94 11.67)" id="ywNMXI_HtvPpRCJEn4pnW"  >
<path style="stroke: none; stroke-width: 1; stroke-dasharray: none; stroke-linecap: butt; stroke-dashoffset: 0; stroke-linejoin: miter; stroke-miterlimit: 4; fill: rgb(33,109,181); fill-rule: nonzero; opacity: 1;" vector-effect="non-scaling-stroke"  transform=" translate(-14.16, 4.82)" d="M 14.398438 -5.28125 C 11.519531 -5.28125 9.359375 -7.777344 9.359375 -10.609375 C 9.359375 -13.390625 11.519531 -15.886719 14.398438 -15.886719 C 17.28125 -15.886719 19.441406 -13.390625 19.441406 -10.609375 C 19.441406 -7.777344 17.28125 -5.28125 14.398438 -5.28125 Z M 19.441406 -18.574219 C 17.375 -20.976562 14.878906 -21.648438 12.191406 -21.648438 C 6.191406 -21.648438 1.679688 -16.464844 1.679688 -10.609375 C 1.679688 -4.753906 6.191406 0.480469 12.191406 0.480469 C 14.878906 0.480469 18 -0.382812 19.441406 -2.59375 L 19.441406 0.769531 C 19.441406 3.792969 17.183594 6.671875 14.015625 6.671875 C 11.710938 6.671875 9.742188 5.183594 9.214844 2.6875 L 2.015625 2.6875 C 2.351562 9.121094 8.640625 12 14.398438 12 C 21.121094 12 26.640625 6.910156 26.640625 -0.046875 L 26.640625 -21.167969 L 19.441406 -21.167969 Z M 19.441406 -18.574219" stroke-linecap="round" />
</g>
		<g transform="matrix(1.33 0 0 1.33 13.5 -3.66)" id="9ZkGgaa-yaYN1rSPRdHa_"  >
<path style="stroke: none; stroke-width: 1; stroke-dasharray: none; stroke-linecap: butt; stroke-dashoffset: 0; stroke-linejoin: miter; stroke-miterlimit: 4; fill: rgb(33,109,181); fill-rule: nonzero; opacity: 1;" vector-effect="non-scaling-stroke"  transform=" translate(-6.72, 16.32)" d="M 2.496094 -28.414062 C 2.496094 -26.113281 4.367188 -24.191406 6.71875 -24.191406 C 9.023438 -24.191406 10.945312 -26.113281 10.945312 -28.414062 C 10.945312 -30.769531 9.023438 -32.640625 6.71875 -32.640625 C 4.367188 -32.640625 2.496094 -30.769531 2.496094 -28.414062 Z M 10.320312 0 L 10.320312 -21.167969 L 3.121094 -21.167969 L 3.121094 0 Z M 10.320312 0" stroke-linecap="round" />
</g>
		<g transform="matrix(1.33 0 0 1.33 42.2 -5.9)" id="qIlqRKXTJ5oupHFuAWxBo"  >
<path style="stroke: none; stroke-width: 1; stroke-dasharray: none; stroke-linecap: butt; stroke-dashoffset: 0; stroke-linejoin: miter; stroke-miterlimit: 4; fill: rgb(33,109,181); fill-rule: nonzero; opacity: 1;" vector-effect="non-scaling-stroke"  transform=" translate(-14.81, 18)" d="M 10.078125 -9.359375 L 17.519531 0 L 26.734375 0 L 16.65625 -11.089844 L 25.777344 -21.167969 L 16.847656 -21.167969 L 10.078125 -12.769531 L 10.078125 -36 L 2.878906 -36 L 2.878906 0 L 10.078125 0 Z M 10.078125 -9.359375" stroke-linecap="round" />
</g>
		<g transform="matrix(1.33 0 0 1.33 77.56 -3.66)" id="6pAvLDwIHrSVpzZ8A15AT"  >
<path style="stroke: none; stroke-width: 1; stroke-dasharray: none; stroke-linecap: butt; stroke-dashoffset: 0; stroke-linejoin: miter; stroke-miterlimit: 4; fill: rgb(40,40,94); fill-rule: nonzero; opacity: 1;" vector-effect="non-scaling-stroke"  transform=" translate(-16.03, 16.32)" d="M 12.433594 0 L 19.632812 0 L 19.632812 -15.601562 L 31.679688 -32.640625 L 23.089844 -32.640625 L 16.03125 -21.359375 L 8.976562 -32.640625 L 0.382812 -32.640625 L 12.433594 -15.601562 Z M 12.433594 0" stroke-linecap="round" />
</g>
		<g transform="matrix(1.33 0 0 1.33 117.81 3.99)" id="2Xkgj48kHkZPwHI7xWc2u"  >
<path style="stroke: none; stroke-width: 1; stroke-dasharray: none; stroke-linecap: butt; stroke-dashoffset: 0; stroke-linejoin: miter; stroke-miterlimit: 4; fill: rgb(40,40,94); fill-rule: nonzero; opacity: 1;" vector-effect="non-scaling-stroke"  transform=" translate(-14.16, 10.58)" d="M 19.441406 -10.558594 C 19.441406 -7.777344 17.28125 -5.28125 14.398438 -5.28125 C 11.519531 -5.28125 9.359375 -7.777344 9.359375 -10.558594 C 9.359375 -13.34375 11.519531 -15.839844 14.398438 -15.839844 C 17.28125 -15.839844 19.441406 -13.34375 19.441406 -10.558594 Z M 26.640625 -21.121094 L 19.441406 -21.121094 L 19.441406 -18.574219 C 17.566406 -20.878906 14.878906 -21.648438 12.191406 -21.648438 C 6.191406 -21.648438 1.679688 -16.414062 1.679688 -10.558594 C 1.679688 -4.703125 6.191406 0.480469 12.191406 0.480469 C 14.878906 0.480469 18 -0.382812 19.441406 -2.542969 L 19.441406 0 L 26.640625 0 Z M 26.640625 -21.121094" stroke-linecap="round" />
</g>
		<g transform="matrix(1.33 0 0 1.33 152.08 3.67)" id="1RQEYy1o-Lnfju6j1cIUy"  >
<path style="stroke: none; stroke-width: 1; stroke-dasharray: none; stroke-linecap: butt; stroke-dashoffset: 0; stroke-linejoin: miter; stroke-miterlimit: 4; fill: rgb(40,40,94); fill-rule: nonzero; opacity: 1;" vector-effect="non-scaling-stroke"  transform=" translate(-10.34, 10.82)" d="M 14.832031 -15.839844 C 15.9375 -15.839844 16.992188 -15.503906 17.710938 -14.640625 L 17.808594 -14.640625 L 17.808594 -21.167969 C 17.230469 -21.457031 16.273438 -21.648438 15.648438 -21.648438 C 13.007812 -21.648438 11.183594 -20.160156 10.078125 -18.574219 L 10.078125 -21.167969 L 2.878906 -21.167969 L 2.878906 0 L 10.078125 0 L 10.078125 -10.558594 C 10.078125 -13.105469 12.144531 -15.839844 14.832031 -15.839844 Z M 14.832031 -15.839844" stroke-linecap="round" />
</g>
</g>
</g>
<g transform="matrix(2.12 0 0 2.12 349.26 136)" id="C60VQtAe89MXpURBCpOD1"  >
<g style="" vector-effect="non-scaling-stroke"   >
		<g transform="matrix(1.33 0 0 1.33 -137.23 6.26)" id="okD8ZIYv1nmBZaUJ1dvUG"  >
<path style="stroke: none; stroke-width: 1; stroke-dasharray: none; stroke-linecap: butt; stroke-dashoffset: 0; stroke-linejoin: miter; stroke-miterlimit: 4; fill: rgb(40,40,94); fill-rule: nonzero; opacity: 1;" vector-effect="non-scaling-stroke"  transform=" translate(-126.87, -226.79)" d="M 126.464844 214.183594 C 126.464844 215.34375 126.464844 216.417969 126.464844 217.585938 C 125.9375 217.691406 125.429688 217.761719 124.941406 217.894531 C 121.59375 218.808594 119.273438 220.859375 118.324219 224.226562 C 117.398438 227.519531 118.132812 230.472656 120.550781 232.960938 C 123.109375 235.589844 126.261719 236.347656 129.648438 235.324219 C 132.917969 234.339844 135.089844 232.03125 135.820312 228.585938 C 135.960938 227.914062 136.191406 227.613281 136.910156 227.65625 C 137.742188 227.710938 138.578125 227.667969 139.40625 227.667969 C 139.761719 232.742188 134.9375 238.609375 128.675781 239.316406 C 120.679688 240.21875 114.570312 234.257812 114.316406 227.246094 C 114.03125 219.257812 120.929688 213.898438 126.464844 214.183594 Z M 126.464844 214.183594" stroke-linecap="round" />
</g>
		<g transform="matrix(1.33 0 0 1.33 -121.88 21.07)" id="BOpXM9iijdgp7OSiJwpOl"  >
<path style="stroke: none; stroke-width: 1; stroke-dasharray: none; stroke-linecap: butt; stroke-dashoffset: 0; stroke-linejoin: miter; stroke-miterlimit: 4; fill: rgb(40,40,94); fill-rule: nonzero; opacity: 1;" vector-effect="non-scaling-stroke"  transform=" translate(-138.39, -237.89)" d="M 135.398438 237.578125 C 136.273438 236.660156 137.089844 235.800781 137.867188 234.984375 C 138.964844 236.019531 140.101562 237.058594 141.1875 238.148438 C 141.359375 238.320312 141.414062 238.746094 141.339844 239 C 140.757812 240.949219 138.992188 241.394531 137.613281 239.960938 C 136.84375 239.15625 136.09375 238.328125 135.398438 237.578125 Z M 135.398438 237.578125" stroke-linecap="round" />
</g>
		<g transform="matrix(1.33 0 0 1.33 -107.72 -7.41)" id="HpLYg81CbxnSBBNbVWmfA"  >
<path style="stroke: none; stroke-width: 1; stroke-dasharray: none; stroke-linecap: butt; stroke-dashoffset: 0; stroke-linejoin: miter; stroke-miterlimit: 4; fill: rgb(33,109,181); fill-rule: nonzero; opacity: 1;" vector-effect="non-scaling-stroke"  transform=" translate(-149, -216.54)" d="M 149 224.015625 C 144.878906 224.015625 141.523438 220.660156 141.523438 216.535156 C 141.523438 212.414062 144.878906 209.058594 149 209.058594 C 153.125 209.058594 156.480469 212.414062 156.480469 216.535156 C 156.480469 220.660156 153.125 224.015625 149 224.015625 Z M 149 211.707031 C 146.339844 211.707031 144.171875 213.875 144.171875 216.535156 C 144.171875 219.199219 146.339844 221.363281 149 221.363281 C 151.664062 221.363281 153.828125 219.199219 153.828125 216.535156 C 153.828125 213.875 151.664062 211.707031 149 211.707031 Z M 149 211.707031" stroke-linecap="round" />
</g>
		<g transform="matrix(1.33 0 0 1.33 -136.96 6.26)" id="iJYaaxZ3SoMwblrKG5YhD"  >
<path style="stroke: none; stroke-width: 1; stroke-dasharray: none; stroke-linecap: butt; stroke-dashoffset: 0; stroke-linejoin: miter; stroke-miterlimit: 4; fill: rgb(33,109,181); fill-rule: nonzero; opacity: 1;" vector-effect="non-scaling-stroke"  transform=" translate(-127.07, -226.79)" d="M 127.074219 234.636719 C 122.746094 234.636719 119.226562 231.117188 119.226562 226.789062 C 119.226562 222.460938 122.746094 218.941406 127.074219 218.941406 C 131.402344 218.941406 134.921875 222.460938 134.921875 226.789062 C 134.921875 231.117188 131.402344 234.636719 127.074219 234.636719 Z M 127.074219 221.59375 C 124.207031 221.59375 121.878906 223.921875 121.878906 226.789062 C 121.878906 229.65625 124.207031 231.984375 127.074219 231.984375 C 129.9375 231.984375 132.269531 229.65625 132.269531 226.789062 C 132.269531 223.921875 129.9375 221.59375 127.074219 221.59375 Z M 127.074219 221.59375" stroke-linecap="round" />
</g>
		<g transform="matrix(1.33 0 0 1.33 -134.87 -25.95)" id="hyDWyAPWPKcP01DmwdWSJ"  >
<path style="stroke: none; stroke-width: 1; stroke-dasharray: none; stroke-linecap: butt; stroke-dashoffset: 0; stroke-linejoin: miter; stroke-miterlimit: 4; fill: rgb(33,109,181); fill-rule: nonzero; opacity: 1;" vector-effect="non-scaling-stroke"  transform=" translate(-128.64, -202.63)" d="M 128.632812 208.710938 C 127.898438 208.710938 127.152344 208.574219 126.429688 208.292969 C 123.308594 207.074219 121.757812 203.542969 122.976562 200.421875 C 123.566406 198.910156 124.710938 197.714844 126.199219 197.066406 C 127.683594 196.414062 129.335938 196.378906 130.847656 196.96875 C 132.363281 197.558594 133.554688 198.703125 134.207031 200.191406 C 134.855469 201.679688 134.890625 203.328125 134.300781 204.84375 C 133.363281 207.238281 131.0625 208.710938 128.632812 208.710938 Z M 125.445312 201.386719 C 124.757812 203.144531 125.632812 205.136719 127.390625 205.824219 C 129.152344 206.511719 131.144531 205.636719 131.832031 203.878906 C 132.164062 203.027344 132.144531 202.09375 131.777344 201.253906 C 131.410156 200.417969 130.738281 199.773438 129.886719 199.4375 C 129.03125 199.105469 128.101562 199.125 127.261719 199.492188 C 126.425781 199.859375 125.78125 200.53125 125.445312 201.386719 Z M 125.445312 201.386719" stroke-linecap="round" />
</g>
		<g transform="matrix(1.33 0 0 1.33 -155.72 -15.67)" id="yaCca84DJ97Nz2dzrq-Yw"  >
<path style="stroke: none; stroke-width: 1; stroke-dasharray: none; stroke-linecap: butt; stroke-dashoffset: 0; stroke-linejoin: miter; stroke-miterlimit: 4; fill: rgb(33,109,181); fill-rule: nonzero; opacity: 1;" vector-effect="non-scaling-stroke"  transform=" translate(-113, -210.34)" d="M 113 215.070312 C 110.6875 215.070312 108.660156 213.367188 108.320312 211.015625 C 107.949219 208.433594 109.746094 206.03125 112.324219 205.65625 C 114.90625 205.285156 117.3125 207.082031 117.683594 209.664062 C 118.054688 212.246094 116.257812 214.648438 113.675781 215.019531 C 113.449219 215.054688 113.222656 215.070312 113 215.070312 Z M 110.941406 210.636719 C 111.023438 211.1875 111.3125 211.671875 111.757812 212.003906 C 112.199219 212.339844 112.75 212.476562 113.296875 212.398438 C 114.433594 212.234375 115.222656 211.179688 115.058594 210.042969 C 114.894531 208.90625 113.839844 208.117188 112.703125 208.28125 C 111.570312 208.445312 110.78125 209.5 110.941406 210.636719 Z M 110.941406 210.636719" stroke-linecap="round" />
</g>
		<g transform="matrix(1.33 0 0 1.33 -145.86 -21.69)" id="6FxyRwL-eMCo98GNzalUT"  >
<path style="stroke: none; stroke-width: 1; stroke-dasharray: none; stroke-linecap: butt; stroke-dashoffset: 0; stroke-linejoin: miter; stroke-miterlimit: 4; fill: rgb(33,109,181); fill-rule: nonzero; opacity: 1;" vector-effect="non-scaling-stroke"  transform=" translate(-120.4, -205.83)" d="M 115.179688 207.316406 L 124.289062 202.042969 L 125.617188 204.335938 L 116.507812 209.609375 Z M 115.179688 207.316406" stroke-linecap="round" />
</g>
		<g transform="matrix(1.33 0 0 1.33 -134.69 -10.9)" id="cNiGrRYnB8HwxurlO552Y"  >
<path style="stroke: none; stroke-width: 1; stroke-dasharray: none; stroke-linecap: butt; stroke-dashoffset: 0; stroke-linejoin: miter; stroke-miterlimit: 4; fill: rgb(33,109,181); fill-rule: nonzero; opacity: 1;" vector-effect="non-scaling-stroke"  transform=" translate(-128.78, -213.92)" d="M 127.410156 220.015625 L 127.496094 207.808594 L 130.144531 207.828125 L 130.0625 220.035156 Z M 127.410156 220.015625" stroke-linecap="round" />
</g>
		<g transform="matrix(1.33 0 0 1.33 -121.2 0.79)" id="IjbTiBRu4MiA6VMPt6WSk"  >
<path style="stroke: none; stroke-width: 1; stroke-dasharray: none; stroke-linecap: butt; stroke-dashoffset: 0; stroke-linejoin: miter; stroke-miterlimit: 4; fill: rgb(33,109,181); fill-rule: nonzero; opacity: 1;" vector-effect="non-scaling-stroke"  transform=" translate(-138.89, -222.69)" d="M 133.046875 224.421875 L 143.453125 218.636719 L 144.742188 220.953125 L 134.335938 226.738281 Z M 133.046875 224.421875" stroke-linecap="round" />
</g>
		<g transform="matrix(1.33 0 0 1.33 -136.96 11.77)" id="GeKt0WgHqS4xJO9YIb-gx"  >
<path style="stroke: none; stroke-width: 1; stroke-dasharray: none; stroke-linecap: butt; stroke-dashoffset: 0; stroke-linejoin: miter; stroke-miterlimit: 4; fill: rgb(33,109,181); fill-rule: nonzero; opacity: 1;" vector-effect="non-scaling-stroke"  transform=" translate(-127.07, -230.93)" d="M 130.824219 231.820312 C 130.824219 232.207031 130.816406 232.597656 130.824219 232.984375 C 130.828125 233.101562 130.789062 233.15625 130.683594 233.207031 C 129.960938 233.542969 129.191406 233.699219 128.40625 233.78125 C 126.722656 233.957031 125.082031 233.71875 123.472656 233.226562 C 123.34375 233.1875 123.304688 233.132812 123.304688 233 C 123.3125 232.308594 123.308594 231.617188 123.3125 230.921875 C 123.316406 229.382812 124.371094 228.171875 125.90625 228.054688 C 126.734375 227.988281 127.574219 228.003906 128.398438 228.074219 C 129.597656 228.175781 130.625 229.203125 130.777344 230.402344 C 130.835938 230.871094 130.820312 231.347656 130.839844 231.820312 C 130.835938 231.820312 130.828125 231.820312 130.824219 231.820312 Z M 130.824219 231.820312" stroke-linecap="round" />
</g>
		<g transform="matrix(1.33 0 0 1.33 -136.96 4.77)" id="l4zR0XL4Bfaf6xYdYcljH"  >
<path style="stroke: none; stroke-width: 1; stroke-dasharray: none; stroke-linecap: butt; stroke-dashoffset: 0; stroke-linejoin: miter; stroke-miterlimit: 4; fill: rgb(33,109,181); fill-rule: nonzero; opacity: 1;" vector-effect="non-scaling-stroke"  transform=" translate(-127.07, -225.68)" d="M 124.871094 225.675781 C 124.875 224.449219 125.863281 223.46875 127.082031 223.472656 C 128.289062 223.476562 129.28125 224.476562 129.277344 225.679688 C 129.273438 226.910156 128.28125 227.882812 127.039062 227.878906 C 125.84375 227.875 124.867188 226.882812 124.871094 225.675781 Z M 124.871094 225.675781" stroke-linecap="round" />
</g>
		<g transform="matrix(1.33 0 0 1.33 -107.67 -2.36)" id="Bhwjcu9FjVDbP2T8G6hgC"  >
<path style="stroke: none; stroke-width: 1; stroke-dasharray: none; stroke-linecap: butt; stroke-dashoffset: 0; stroke-linejoin: miter; stroke-miterlimit: 4; fill: rgb(33,109,181); fill-rule: nonzero; opacity: 1;" vector-effect="non-scaling-stroke"  transform=" translate(-149.04, -220.33)" d="M 152.496094 221.152344 C 152.496094 221.511719 152.492188 221.867188 152.5 222.226562 C 152.5 222.332031 152.464844 222.386719 152.371094 222.429688 C 151.703125 222.742188 150.992188 222.886719 150.265625 222.960938 C 148.710938 223.125 147.199219 222.90625 145.710938 222.453125 C 145.59375 222.414062 145.554688 222.363281 145.558594 222.242188 C 145.5625 221.601562 145.558594 220.964844 145.5625 220.324219 C 145.566406 218.898438 146.542969 217.785156 147.957031 217.675781 C 148.722656 217.613281 149.496094 217.628906 150.257812 217.691406 C 151.367188 217.785156 152.3125 218.734375 152.453125 219.84375 C 152.511719 220.273438 152.496094 220.714844 152.515625 221.152344 C 152.507812 221.152344 152.503906 221.152344 152.496094 221.152344 Z M 152.496094 221.152344" stroke-linecap="round" />
</g>
		<g transform="matrix(1.33 0 0 1.33 -107.67 -8.82)" id="vBIl4Nfx0gRkAWvnsGF4J"  >
<path style="stroke: none; stroke-width: 1; stroke-dasharray: none; stroke-linecap: butt; stroke-dashoffset: 0; stroke-linejoin: miter; stroke-miterlimit: 4; fill: rgb(33,109,181); fill-rule: nonzero; opacity: 1;" vector-effect="non-scaling-stroke"  transform=" translate(-149.04, -215.48)" d="M 147.003906 215.476562 C 147.003906 214.347656 147.914062 213.441406 149.042969 213.445312 C 150.160156 213.449219 151.074219 214.371094 151.070312 215.484375 C 151.066406 216.617188 150.148438 217.519531 149.003906 217.515625 C 147.898438 217.507812 147 216.59375 147.003906 215.476562 Z M 147.003906 215.476562" stroke-linecap="round" />
</g>
		<g transform="matrix(1.33 0 0 1.33 -134.73 -22.37)" id="MbkkiG5D_3lMmwVctDk8M"  >
<path style="stroke: none; stroke-width: 1; stroke-dasharray: none; stroke-linecap: butt; stroke-dashoffset: 0; stroke-linejoin: miter; stroke-miterlimit: 4; fill: rgb(33,109,181); fill-rule: nonzero; opacity: 1;" vector-effect="non-scaling-stroke"  transform=" translate(-128.74, -205.32)" d="M 131.398438 205.863281 C 131.40625 206.136719 131.414062 206.414062 131.429688 206.6875 C 131.433594 206.769531 131.40625 206.8125 131.335938 206.847656 C 130.832031 207.105469 130.289062 207.234375 129.734375 207.3125 C 128.546875 207.476562 127.378906 207.351562 126.226562 207.042969 C 126.136719 207.015625 126.105469 206.976562 126.105469 206.882812 C 126.089844 206.394531 126.070312 205.902344 126.054688 205.414062 C 126.019531 204.320312 126.738281 203.4375 127.824219 203.316406 C 128.40625 203.25 129 203.238281 129.589844 203.269531 C 130.441406 203.3125 131.191406 204.015625 131.332031 204.859375 C 131.382812 205.191406 131.386719 205.527344 131.410156 205.863281 C 131.40625 205.863281 131.402344 205.863281 131.398438 205.863281 Z M 131.398438 205.863281" stroke-linecap="round" />
</g>
		<g transform="matrix(1.33 0 0 1.33 -134.93 -27.32)" id="taiEruDd4PwQJCKMJMMVh"  >
<path style="stroke: none; stroke-width: 1; stroke-dasharray: none; stroke-linecap: butt; stroke-dashoffset: 0; stroke-linejoin: miter; stroke-miterlimit: 4; fill: rgb(33,109,181); fill-rule: nonzero; opacity: 1;" vector-effect="non-scaling-stroke"  transform=" translate(-128.59, -201.6)" d="M 127.03125 201.65625 C 127.003906 200.789062 127.675781 200.070312 128.542969 200.042969 C 129.398438 200.015625 130.125 200.699219 130.152344 201.554688 C 130.179688 202.421875 129.5 203.136719 128.621094 203.164062 C 127.773438 203.191406 127.058594 202.515625 127.03125 201.65625 Z M 127.03125 201.65625" stroke-linecap="round" />
</g>
		<g transform="matrix(1.33 0 0 1.33 -155.62 -13.87)" id="ybmZKvBNPtXJyvDMcr99d"  >
<path style="stroke: none; stroke-width: 1; stroke-dasharray: none; stroke-linecap: butt; stroke-dashoffset: 0; stroke-linejoin: miter; stroke-miterlimit: 4; fill: rgb(33,109,181); fill-rule: nonzero; opacity: 1;" vector-effect="non-scaling-stroke"  transform=" translate(-113.07, -211.69)" d="M 114.5 211.984375 C 114.503906 212.132812 114.507812 212.277344 114.515625 212.425781 C 114.519531 212.46875 114.503906 212.492188 114.464844 212.511719 C 114.195312 212.648438 113.90625 212.71875 113.609375 212.761719 C 112.96875 212.851562 112.34375 212.78125 111.726562 212.617188 C 111.675781 212.601562 111.660156 212.582031 111.660156 212.53125 C 111.652344 212.269531 111.644531 212.007812 111.632812 211.742188 C 111.617188 211.15625 112 210.683594 112.582031 210.617188 C 112.894531 210.582031 113.214844 210.578125 113.527344 210.59375 C 113.988281 210.617188 114.390625 210.992188 114.464844 211.445312 C 114.492188 211.625 114.492188 211.804688 114.507812 211.984375 C 114.503906 211.984375 114.5 211.984375 114.5 211.984375 Z M 114.5 211.984375" stroke-linecap="round" />
</g>
		<g transform="matrix(1.33 0 0 1.33 -155.73 -16.52)" id="lr3FVspxvNJgk1BDXk54m"  >
<path style="stroke: none; stroke-width: 1; stroke-dasharray: none; stroke-linecap: butt; stroke-dashoffset: 0; stroke-linejoin: miter; stroke-miterlimit: 4; fill: rgb(33,109,181); fill-rule: nonzero; opacity: 1;" vector-effect="non-scaling-stroke"  transform=" translate(-112.99, -209.7)" d="M 112.15625 209.730469 C 112.140625 209.265625 112.503906 208.878906 112.96875 208.863281 C 113.425781 208.851562 113.816406 209.214844 113.832031 209.671875 C 113.84375 210.140625 113.480469 210.523438 113.011719 210.539062 C 112.554688 210.550781 112.171875 210.1875 112.15625 209.730469 Z M 112.15625 209.730469" stroke-linecap="round" />
</g>
		<g transform="matrix(1.33 0 0 1.33 -72.27 -3.66)" id="wyG0M0hUwtH3_uEfog_py"  >
<path style="stroke: none; stroke-width: 1; stroke-dasharray: none; stroke-linecap: butt; stroke-dashoffset: 0; stroke-linejoin: miter; stroke-miterlimit: 4; fill: rgb(33,109,181); fill-rule: nonzero; opacity: 1;" vector-effect="non-scaling-stroke"  transform=" translate(-15.84, 16.32)" d="M 9.984375 -6.625 L 9.984375 -25.96875 L 12.144531 -25.96875 C 17.710938 -25.96875 21.457031 -21.742188 21.457031 -16.320312 C 21.457031 -10.894531 17.664062 -6.625 12.144531 -6.625 Z M 2.878906 -32.640625 L 2.878906 0 L 12.574219 0 C 21.839844 0 28.800781 -7.105469 28.800781 -16.320312 C 28.800781 -25.535156 21.792969 -32.640625 12.574219 -32.640625 Z M 2.878906 -32.640625" stroke-linecap="round" />
</g>
		<g transform="matrix(1.33 0 0 1.33 -43.79 -3.66)" id="MmwI4uG6DlkkC9sK2s5FC"  >
<path style="stroke: none; stroke-width: 1; stroke-dasharray: none; stroke-linecap: butt; stroke-dashoffset: 0; stroke-linejoin: miter; stroke-miterlimit: 4; fill: rgb(33,109,181); fill-rule: nonzero; opacity: 1;" vector-effect="non-scaling-stroke"  transform=" translate(-6.72, 16.32)" d="M 2.496094 -28.414062 C 2.496094 -26.113281 4.367188 -24.191406 6.71875 -24.191406 C 9.023438 -24.191406 10.945312 -26.113281 10.945312 -28.414062 C 10.945312 -30.769531 9.023438 -32.640625 6.71875 -32.640625 C 4.367188 -32.640625 2.496094 -30.769531 2.496094 -28.414062 Z M 10.320312 0 L 10.320312 -21.167969 L 3.121094 -21.167969 L 3.121094 0 Z M 10.320312 0" stroke-linecap="round" />
</g>
		<g transform="matrix(1.33 0 0 1.33 -15.95 11.67)" id="CdcGyj8cOImsTEsdPWFUo"  >
<path style="stroke: none; stroke-width: 1; stroke-dasharray: none; stroke-linecap: butt; stroke-dashoffset: 0; stroke-linejoin: miter; stroke-miterlimit: 4; fill: rgb(33,109,181); fill-rule: nonzero; opacity: 1;" vector-effect="non-scaling-stroke"  transform=" translate(-14.16, 4.82)" d="M 14.398438 -5.28125 C 11.519531 -5.28125 9.359375 -7.777344 9.359375 -10.609375 C 9.359375 -13.390625 11.519531 -15.886719 14.398438 -15.886719 C 17.28125 -15.886719 19.441406 -13.390625 19.441406 -10.609375 C 19.441406 -7.777344 17.28125 -5.28125 14.398438 -5.28125 Z M 19.441406 -18.574219 C 17.375 -20.976562 14.878906 -21.648438 12.191406 -21.648438 C 6.191406 -21.648438 1.679688 -16.464844 1.679688 -10.609375 C 1.679688 -4.753906 6.191406 0.480469 12.191406 0.480469 C 14.878906 0.480469 18 -0.382812 19.441406 -2.59375 L 19.441406 0.769531 C 19.441406 3.792969 17.183594 6.671875 14.015625 6.671875 C 11.710938 6.671875 9.742188 5.183594 9.214844 2.6875 L 2.015625 2.6875 C 2.351562 9.121094 8.640625 12 14.398438 12 C 21.121094 12 26.640625 6.910156 26.640625 -0.046875 L 26.640625 -21.167969 L 19.441406 -21.167969 Z M 19.441406 -18.574219" stroke-linecap="round" />
</g>
		<g transform="matrix(1.33 0 0 1.33 13.49 -3.66)" id="iy_antssQZLKinG3kYG-_"  >
<path style="stroke: none; stroke-width: 1; stroke-dasharray: none; stroke-linecap: butt; stroke-dashoffset: 0; stroke-linejoin: miter; stroke-miterlimit: 4; fill: rgb(33,109,181); fill-rule: nonzero; opacity: 1;" vector-effect="non-scaling-stroke"  transform=" translate(-6.72, 16.32)" d="M 2.496094 -28.414062 C 2.496094 -26.113281 4.367188 -24.191406 6.71875 -24.191406 C 9.023438 -24.191406 10.945312 -26.113281 10.945312 -28.414062 C 10.945312 -30.769531 9.023438 -32.640625 6.71875 -32.640625 C 4.367188 -32.640625 2.496094 -30.769531 2.496094 -28.414062 Z M 10.320312 0 L 10.320312 -21.167969 L 3.121094 -21.167969 L 3.121094 0 Z M 10.320312 0" stroke-linecap="round" />
</g>
		<g transform="matrix(1.33 0 0 1.33 42.19 -5.9)" id="dHEv1Giq8St1MtZfRaOVb"  >
<path style="stroke: none; stroke-width: 1; stroke-dasharray: none; stroke-linecap: butt; stroke-dashoffset: 0; stroke-linejoin: miter; stroke-miterlimit: 4; fill: rgb(33,109,181); fill-rule: nonzero; opacity: 1;" vector-effect="non-scaling-stroke"  transform=" translate(-14.81, 18)" d="M 10.078125 -9.359375 L 17.519531 0 L 26.734375 0 L 16.65625 -11.089844 L 25.777344 -21.167969 L 16.847656 -21.167969 L 10.078125 -12.769531 L 10.078125 -36 L 2.878906 -36 L 2.878906 0 L 10.078125 0 Z M 10.078125 -9.359375" stroke-linecap="round" />
</g>
		<g transform="matrix(1.33 0 0 1.33 77.55 -3.66)" id="1xc3uD_9EJeA6ySBWa8nL"  >
<path style="stroke: none; stroke-width: 1; stroke-dasharray: none; stroke-linecap: butt; stroke-dashoffset: 0; stroke-linejoin: miter; stroke-miterlimit: 4; fill: rgb(40,40,94); fill-rule: nonzero; opacity: 1;" vector-effect="non-scaling-stroke"  transform=" translate(-16.03, 16.32)" d="M 12.433594 0 L 19.632812 0 L 19.632812 -15.601562 L 31.679688 -32.640625 L 23.089844 -32.640625 L 16.03125 -21.359375 L 8.976562 -32.640625 L 0.382812 -32.640625 L 12.433594 -15.601562 Z M 12.433594 0" stroke-linecap="round" />
</g>
		<g transform="matrix(1.33 0 0 1.33 117.8 3.99)" id="0AIr184Ba6pY-XVB03mT1"  >
<path style="stroke: none; stroke-width: 1; stroke-dasharray: none; stroke-linecap: butt; stroke-dashoffset: 0; stroke-linejoin: miter; stroke-miterlimit: 4; fill: rgb(40,40,94); fill-rule: nonzero; opacity: 1;" vector-effect="non-scaling-stroke"  transform=" translate(-14.16, 10.58)" d="M 19.441406 -10.558594 C 19.441406 -7.777344 17.28125 -5.28125 14.398438 -5.28125 C 11.519531 -5.28125 9.359375 -7.777344 9.359375 -10.558594 C 9.359375 -13.34375 11.519531 -15.839844 14.398438 -15.839844 C 17.28125 -15.839844 19.441406 -13.34375 19.441406 -10.558594 Z M 26.640625 -21.121094 L 19.441406 -21.121094 L 19.441406 -18.574219 C 17.566406 -20.878906 14.878906 -21.648438 12.191406 -21.648438 C 6.191406 -21.648438 1.679688 -16.414062 1.679688 -10.558594 C 1.679688 -4.703125 6.191406 0.480469 12.191406 0.480469 C 14.878906 0.480469 18 -0.382812 19.441406 -2.542969 L 19.441406 0 L 26.640625 0 Z M 26.640625 -21.121094" stroke-linecap="round" />
</g>
		<g transform="matrix(1.33 0 0 1.33 152.08 3.67)" id="jf-Fm_GeC2V0h9uhKB0JJ"  >
<path style="stroke: none; stroke-width: 1; stroke-dasharray: none; stroke-linecap: butt; stroke-dashoffset: 0; stroke-linejoin: miter; stroke-miterlimit: 4; fill: rgb(40,40,94); fill-rule: nonzero; opacity: 1;" vector-effect="non-scaling-stroke"  transform=" translate(-10.34, 10.82)" d="M 14.832031 -15.839844 C 15.9375 -15.839844 16.992188 -15.503906 17.710938 -14.640625 L 17.808594 -14.640625 L 17.808594 -21.167969 C 17.230469 -21.457031 16.273438 -21.648438 15.648438 -21.648438 C 13.007812 -21.648438 11.183594 -20.160156 10.078125 -18.574219 L 10.078125 -21.167969 L 2.878906 -21.167969 L 2.878906 0 L 10.078125 0 L 10.078125 -10.558594 C 10.078125 -13.105469 12.144531 -15.839844 14.832031 -15.839844 Z M 14.832031 -15.839844" stroke-linecap="round" />
</g>
</g>
</g>
</svg>