<?xml version="1.0" standalone="no"?>
<!DOCTYPE svg PUBLIC "-//W3C//DTD SVG 20010904//EN"
 "http://www.w3.org/TR/2001/REC-SVG-20010904/DTD/svg10.dtd">
<svg version="1.0" xmlns="http://www.w3.org/2000/svg"
 width="209.000000pt" height="182.000000pt" viewBox="0 0 209.000000 182.000000"
 preserveAspectRatio="xMidYMid meet">

<g transform="translate(0.000000,182.000000) scale(0.100000,-0.100000)"
fill="#000000" stroke="none">
<path d="M965 1658 c-47 -10 -109 -56 -131 -100 -8 -16 -19 -48 -22 -71 -7
-41 -11 -44 -115 -104 l-107 -62 -33 19 c-65 40 -148 18 -201 -53 -29 -39 -29
-125 0 -164 39 -53 83 -75 140 -71 89 7 144 68 144 160 l0 43 96 54 95 54 37
-36 c20 -20 54 -43 75 -52 36 -15 37 -16 37 -69 0 -29 -3 -107 -6 -173 l-7
-121 -41 -4 c-206 -24 -298 -275 -158 -430 148 -164 423 -78 449 141 l5 47
146 81 146 81 35 -28 c112 -87 281 -57 356 64 24 40 30 62 33 121 3 61 0 79
-21 121 -46 89 -119 134 -222 134 -95 0 -178 -50 -222 -134 -17 -30 -24 -147
-13 -190 4 -15 -19 -32 -125 -92 -114 -64 -131 -71 -140 -57 -22 36 -80 95
-107 109 l-28 15 0 187 1 187 51 30 c72 42 101 97 96 181 -8 127 -116 208
-243 182z m105 -93 c52 -27 74 -94 48 -149 l-11 -26 -23 25 c-34 36 -105 35
-139 -1 l-25 -27 -15 37 c-42 99 68 191 165 141z m-527 -317 c20 -24 22 -50 6
-81 l-12 -21 -8 22 c-11 30 -62 30 -83 0 l-15 -21 -11 28 c-30 78 69 137 123
73z m1244 -114 c52 -39 68 -71 68 -137 0 -44 -5 -70 -19 -89 l-18 -28 -22 32
c-45 67 -206 53 -206 -19 0 -28 -39 15 -51 58 -22 71 12 153 78 189 48 26 131
23 170 -6z m-750 -325 c94 -46 127 -158 72 -249 l-20 -32 -22 34 c-43 63 -170
64 -213 0 l-22 -32 -21 26 c-61 77 -25 205 71 253 54 27 100 27 155 0z"/>
<path d="M975 1530 c-35 -39 3 -91 55 -75 28 9 37 51 15 75 -10 11 -26 20 -35
20 -9 0 -25 -9 -35 -20z"/>
<path d="M464 1235 c-4 -9 -2 -21 4 -27 15 -15 44 -1 40 19 -4 23 -36 29 -44
8z"/>
<path d="M1656 1076 c-31 -30 -33 -59 -6 -86 41 -41 110 -14 110 41 0 33 -19
56 -52 64 -21 5 -33 1 -52 -19z"/>
<path d="M912 737 c-43 -46 -14 -117 48 -117 35 0 70 34 70 67 0 31 -42 73
-73 73 -13 0 -33 -10 -45 -23z"/>
<path d="M799 1046 c-69 -28 -104 -52 -156 -109 -169 -183 -141 -476 60 -624
166 -121 396 -108 545 31 63 59 112 150 119 222 l6 55 -53 -3 -53 -3 -28 -69
c-33 -81 -74 -127 -146 -163 -115 -56 -241 -39 -333 44 -75 68 -105 130 -104
223 0 95 28 162 93 223 43 40 138 87 176 87 11 0 15 13 15 55 l0 55 -42 0
c-24 0 -68 -11 -99 -24z"/>
<path d="M1276 326 l-35 -44 54 -51 c30 -28 63 -51 75 -51 26 0 70 43 70 69 0
16 -106 121 -123 121 -2 0 -21 -20 -41 -44z"/>
</g>
</svg>
